<svg width="500" height="500" viewBox="0 0 500 500" fill="none" xmlns="http://www.w3.org/2000/svg">
<rect width="500" height="500" fill="white"/>
<rect x="98" y="100" width="305" height="126" rx="13" fill="#98DDFD"/>
<path d="M98 91C98 79.402 107.402 70 119 70H206.217C212.985 70 219.339 73.2626 223.283 78.7636L231.38 90.0569C234.358 94.2093 238.746 97.1338 243.725 98.2827L297.1 110.6C299.662 111.191 302.045 112.39 304.048 114.095V114.095C315.669 123.989 308.672 143 293.41 143H119C107.402 143 98 133.598 98 122V91Z" fill="#98DDFD"/>
<rect x="98" y="120" width="305" height="200" rx="13" fill="#6BCCF9"/>
<circle cx="268" cy="269" r="67.5" fill="#F1F1F1" stroke="#FFB47E" stroke-width="15"/>
<rect x="299.627" y="320" width="114.352" height="19" rx="9.5" transform="rotate(61.0601 299.627 320)" fill="#FFB47E"/>
<path d="M246.177 254.5C245.911 252.767 245.777 251 245.777 249.2C245.844 247.4 246.177 245.633 246.777 243.9C247.511 241.633 248.711 239.633 250.377 237.9C252.044 236.167 253.944 234.8 256.077 233.8C258.344 232.733 260.644 232 262.977 231.6C265.377 231.133 267.711 231.033 269.977 231.3C272.311 231.567 274.544 232.167 276.677 233.1C278.877 233.967 280.944 235.233 282.877 236.9C284.944 238.7 286.477 240.8 287.477 243.2C288.544 245.533 289.111 247.967 289.177 250.5C289.311 253.033 289.011 255.567 288.277 258.1C287.611 260.567 286.577 262.867 285.177 265C285.177 265 285.144 265.067 285.077 265.2C283.944 266.733 282.644 268.133 281.177 269.4C279.711 270.6 278.344 271.9 277.077 273.3C275.611 274.833 274.744 276.4 274.477 278C274.211 279.533 273.944 281.267 273.677 283.2C273.477 285.067 272.977 286.7 272.177 288.1C271.444 289.433 270.044 290.067 267.977 290C266.577 289.933 265.511 289.5 264.777 288.7C264.111 287.833 263.611 286.833 263.277 285.7C263.011 284.5 262.911 283.267 262.977 282C263.044 280.667 263.144 279.5 263.277 278.5C263.677 276.167 264.411 273.967 265.477 271.9C266.544 269.767 267.844 267.767 269.377 265.9C270.244 264.9 271.111 264 271.977 263.2C272.844 262.333 273.644 261.433 274.377 260.5C275.111 259.567 275.744 258.567 276.277 257.5C276.811 256.433 277.177 255.2 277.377 253.8C277.577 252.533 277.477 251.267 277.077 250C276.677 248.667 276.077 247.5 275.277 246.5C274.477 245.433 273.511 244.567 272.377 243.9C271.244 243.167 270.011 242.767 268.677 242.7C267.477 242.633 266.211 242.8 264.877 243.2C263.544 243.533 262.311 244.1 261.177 244.9C260.044 245.633 259.111 246.533 258.377 247.6C257.711 248.667 257.411 249.867 257.477 251.2C257.544 252 257.677 252.833 257.877 253.7C258.144 254.5 258.311 255.3 258.377 256.1C258.511 256.833 258.477 257.567 258.277 258.3C258.144 259.033 257.711 259.733 256.977 260.4C255.777 261.533 254.577 262.1 253.377 262.1C252.177 262.033 251.077 261.633 250.077 260.9C249.077 260.167 248.211 259.233 247.477 258.1C246.811 256.9 246.377 255.7 246.177 254.5ZM274.977 304.4C274.977 306.333 274.244 308.067 272.777 309.6C271.377 311.067 269.744 311.8 267.877 311.8C266.077 311.8 264.477 311.067 263.077 309.6C261.677 308 260.977 306.267 260.977 304.4C260.977 302.333 261.677 300.6 263.077 299.2C264.477 297.667 266.077 296.9 267.877 296.9C269.744 296.9 271.377 297.667 272.777 299.2C274.244 300.667 274.977 302.4 274.977 304.4Z" fill="#C8C8C8"/>
</svg>
