<?xml version="1.0" standalone="no"?>
<!DOCTYPE svg PUBLIC "-//W3C//DTD SVG 20010904//EN"
 "http://www.w3.org/TR/2001/REC-SVG-20010904/DTD/svg10.dtd">
<svg version="1.0" xmlns="http://www.w3.org/2000/svg"
 width="322.000000pt" height="353.000000pt" viewBox="0 0 322.000000 353.000000"
 preserveAspectRatio="xMidYMid meet">

<g transform="translate(0.000000,353.000000) scale(0.100000,-0.100000)"
fill="#000000" stroke="none">
<path d="M367 3346 c-91 -33 -164 -109 -187 -197 -7 -24 -9 -528 -8 -1411 l3
-1373 22 -41 c34 -63 66 -97 125 -129 l53 -30 1235 0 1235 0 53 30 c59 32 91
66 125 129 l22 41 0 1395 0 1395 -30 53 c-32 59 -66 91 -129 125 l-41 22
-1220 2 c-1009 2 -1227 0 -1258 -11z m2461 -166 c66 -40 62 46 62 -1427 0
-1324 0 -1338 -20 -1371 -40 -65 30 -62 -1267 -62 -1164 0 -1178 0 -1211 20
-66 40 -62 -45 -62 1422 0 1249 1 1335 18 1368 10 20 32 42 52 52 33 17 112
18 1215 18 1166 0 1180 0 1213 -20z"/>
<path d="M890 2186 l0 -694 153 68 c251 111 449 170 647 191 126 14 207 6 252
-25 64 -43 63 -30 66 -583 l3 -503 159 0 160 0 0 508 c0 558 -1 570 -61 683
-64 119 -196 213 -333 238 -133 24 -336 6 -557 -49 -63 -16 -127 -34 -142 -39
l-27 -11 0 455 0 455 -160 0 -160 0 0 -694z"/>
<path d="M2000 2838 c-38 -148 -103 -292 -184 -411 l-46 -67 163 0 164 0 46
63 c72 95 135 226 163 334 13 52 24 102 24 109 0 11 -31 14 -160 14 l-159 0
-11 -42z"/>
<path d="M890 960 l0 -324 33 30 c17 17 97 89 177 160 80 71 145 131 145 134
0 3 -65 63 -145 134 -80 71 -160 143 -177 160 l-33 30 0 -324z"/>
</g>
</svg>
